<?xml version="1.0" standalone="no"?>
<!DOCTYPE svg PUBLIC "-//W3C//DTD SVG 20010904//EN"
 "http://www.w3.org/TR/2001/REC-SVG-20010904/DTD/svg10.dtd">
<svg version="1.0" xmlns="http://www.w3.org/2000/svg"
 width="1134.000000pt" height="1134.000000pt" viewBox="0 0 1134.000000 1134.000000"
 preserveAspectRatio="xMidYMid meet">
<metadata>
Created by potrace 1.14, written by Peter Selinger 2001-2017
</metadata>
<g transform="translate(0.000000,1134.000000) scale(0.100000,-0.100000)"
fill="#000000" stroke="none">
<path d="M2900 8820 l0 -1340 803 0 802 0 265 265 265 265 -528 0 -527 0 0
1075 0 1075 -540 0 -540 0 0 -1340z"/>
<path d="M7360 6591 c0 -4 -53 -129 -119 -277 -608 -1377 -925 -2092 -932
-2106 -9 -17 44 -18 1060 -18 l1070 0 -18 43 c-10 23 -161 364 -335 757 -174
393 -406 916 -514 1162 -173 394 -212 474 -212 439z"/>
<path d="M3636 6580 c-3 -8 -164 -530 -356 -1160 -193 -630 -357 -1164 -365
-1187 l-14 -43 1069 0 1068 0 -24 78 c-13 42 -178 582 -366 1199 -189 617
-346 1119 -350 1115 -3 -4 -77 -240 -164 -524 -87 -285 -160 -518 -163 -518
-4 0 -68 204 -144 453 -187 615 -184 604 -191 587z"/>
<path d="M2900 2250 l0 -1070 310 0 310 0 0 542 0 543 543 -543 542 -542 218
217 217 218 -542 542 -543 543 543 0 542 0 0 310 0 310 -1070 0 -1070 0 0
-1070z"/>
<path d="M6303 2713 c4 -663 4 -657 66 -833 59 -166 183 -341 326 -457 334
-272 787 -318 1168 -120 233 121 404 312 503 561 67 168 67 167 71 844 l4 612
-315 0 -316 0 0 -549 c0 -325 -4 -570 -10 -602 -42 -226 -273 -390 -494 -352
-198 34 -341 184 -370 388 -2 17 -5 274 -5 573 l-1 542 -316 0 -315 0 4 -607z"/>
</g>
</svg>
